<svg width="20" height="20" viewBox="0 0 20 20" fill="none" xmlns="http://www.w3.org/2000/svg">
<path d="M10 10.8334C11.3807 10.8334 12.5 9.71409 12.5 8.33337C12.5 6.95266 11.3807 5.83337 10 5.83337C8.61929 5.83337 7.5 6.95266 7.5 8.33337C7.5 9.71409 8.61929 10.8334 10 10.8334Z" stroke="#23272C" stroke-width="2" stroke-linecap="round" stroke-linejoin="round"/>
<path d="M9.99967 1.66663C8.23156 1.66663 6.53587 2.36901 5.28563 3.61925C4.03539 4.86949 3.33301 6.56518 3.33301 8.33329C3.33301 9.90996 3.66801 10.9416 4.58301 12.0833L9.99967 18.3333L15.4163 12.0833C16.3313 10.9416 16.6663 9.90996 16.6663 8.33329C16.6663 6.56518 15.964 4.86949 14.7137 3.61925C13.4635 2.36901 11.7678 1.66663 9.99967 1.66663V1.66663Z" stroke="#23272C" stroke-width="2" stroke-linecap="round" stroke-linejoin="round"/>
</svg>
